<svg width="270" height="270" viewBox="0 0 270 270" fill="none" xmlns="http://www.w3.org/2000/svg">
<rect width="270" height="270" fill="#005CDD"/>
<path d="M162.146 118.21H135.633C135.776 115.022 135.508 112.181 134.828 109.688C134.148 107.154 133.075 104.987 131.608 103.189C130.141 101.349 128.316 99.9596 126.134 99.0195C123.951 98.0794 121.411 97.6093 118.512 97.6093C112.966 97.6093 107.939 99.183 103.431 102.33C98.9226 105.478 95.1478 110.015 92.1065 115.942C89.0651 121.868 86.9362 128.981 85.7197 137.278C84.6105 145.289 84.6284 151.972 85.7733 157.327C86.9541 162.682 89.1367 166.708 92.3211 169.405C95.5056 172.062 99.5488 173.391 104.451 173.391C107.635 173.391 110.587 172.961 113.306 172.103C116.061 171.204 118.548 169.916 120.766 168.24C122.985 166.565 124.899 164.541 126.509 162.171C128.155 159.759 129.425 157.082 130.32 154.139H157.048C155.724 159.657 153.541 165.154 150.5 170.632C147.494 176.068 143.702 180.993 139.122 185.408C134.542 189.822 129.229 193.358 123.182 196.015C117.135 198.672 110.408 200 103.002 200C92.8757 200 84.1453 197.404 76.8104 192.213C69.5112 187.022 64.2336 179.501 60.9776 169.651C57.7574 159.759 57.1491 147.783 59.1528 133.722C61.1207 120.111 65.0029 108.645 70.7993 99.326C76.6315 90.0067 83.716 82.9558 92.0528 78.1735C100.425 73.3912 109.353 71 118.834 71C125.704 71 131.876 72.0627 137.351 74.1882C142.861 76.2728 147.53 79.3384 151.359 83.385C155.187 87.3907 158.032 92.3161 159.892 98.1611C161.789 104.006 162.54 110.689 162.146 118.21Z" fill="white"/>
<path d="M187.514 184.304C183.614 184.304 180.429 182.751 177.96 179.644C175.492 176.538 174.436 172.778 174.794 168.363C175.116 163.99 176.78 160.29 179.785 157.266C182.791 154.2 186.226 152.667 190.09 152.667C193.811 152.667 196.924 154.2 199.429 157.266C201.969 160.331 203.06 164.03 202.702 168.363C202.452 171.306 201.575 173.983 200.073 176.395C198.57 178.807 196.709 180.728 194.491 182.158C192.272 183.589 189.947 184.304 187.514 184.304ZM196.745 123.299C192.845 123.299 189.661 121.766 187.192 118.701C184.723 115.594 183.667 111.813 184.025 107.358C184.347 103.025 186.011 99.326 189.016 96.2605C192.022 93.1949 195.457 91.6621 199.321 91.6621C203.042 91.6621 206.155 93.2153 208.66 96.3218C211.2 99.3874 212.292 103.066 211.934 107.358C211.683 110.342 210.807 113.039 209.304 115.451C207.801 117.863 205.941 119.784 203.722 121.214C201.504 122.604 199.178 123.299 196.745 123.299Z" fill="white"/>
</svg>
